<?xml version="1.0" standalone="no"?><!DOCTYPE svg PUBLIC "-//W3C//DTD SVG 1.1//EN" "http://www.w3.org/Graphics/SVG/1.1/DTD/svg11.dtd"><svg t="1614678498192" class="icon" viewBox="0 0 1024 1024" version="1.1" xmlns="http://www.w3.org/2000/svg" p-id="6146" xmlns:xlink="http://www.w3.org/1999/xlink" width="32" height="32"><defs><style type="text/css"></style></defs><path d="M586.24 883.2c-5.12 0-7.68 0-12.8-2.56L102.4 606.72c-7.68-5.12-12.8-12.8-12.8-23.04s5.12-17.92 12.8-23.04l471.04-273.92c7.68-5.12 17.92-5.12 25.6 0 7.68 5.12 12.8 12.8 12.8 23.04v112.64l232.96-135.68c7.68-5.12 17.92-5.12 25.6 0 7.68 5.12 12.8 12.8 12.8 23.04v545.28c0 10.24-5.12 17.92-12.8 23.04-7.68 5.12-17.92 5.12-25.6 0L609.28 742.4v112.64c2.56 15.36-7.68 28.16-23.04 28.16zM166.4 583.68L563.2 811.52v-112.64c0-10.24 5.12-17.92 12.8-23.04 7.68-5.12 17.92-5.12 25.6 0l235.52 135.68V355.84l-232.96 135.68c-7.68 5.12-17.92 5.12-25.6 0-7.68-5.12-12.8-12.8-12.8-23.04v-112.64L166.4 583.68z" fill="#1296db" p-id="6147"></path></svg>