<?xml version="1.0" standalone="no"?><!DOCTYPE svg PUBLIC "-//W3C//DTD SVG 1.1//EN" "http://www.w3.org/Graphics/SVG/1.1/DTD/svg11.dtd"><svg t="1614674163871" class="icon" viewBox="0 0 1024 1024" version="1.1" xmlns="http://www.w3.org/2000/svg" p-id="8291" width="64" height="64" xmlns:xlink="http://www.w3.org/1999/xlink"><defs><style type="text/css"></style></defs><path d="M512 512m-512 0a512 512 0 1 0 1024 0 512 512 0 1 0-1024 0Z" fill="#E0EAFF" p-id="8292"></path><path d="M657.267874 736.126653H347.017432a70.321853 70.321853 0 0 1-63.843706-40.830653L223.339789 565.754611a25.308968 25.308968 0 0 1 22.969937-35.926232h574.517895a25.308968 25.308968 0 0 1 18.582905 42.49061l-130.425263 141.204211a70.321853 70.321853 0 0 1-51.717389 22.603453z" fill="#00ABFF" p-id="8293"></path><path d="M657.267874 746.916379H347.017432a81.348716 81.348716 0 0 1-73.620211-47.093221l-59.855495-129.552169a36.098695 36.098695 0 0 1 32.768-51.221557h574.517895a36.098695 36.098695 0 0 1 26.505432 60.588463l-130.425264 141.20421a81.359495 81.359495 0 0 1-59.639915 26.074274z m-410.958148-206.309053a14.5408 14.5408 0 0 0-13.193431 20.630906l59.844716 129.552168a59.747705 59.747705 0 0 0 54.056421 34.568084h310.250442a59.736926 59.736926 0 0 0 43.740968-19.154189l130.425263-141.204211a14.5408 14.5408 0 0 0-10.671158-24.403537z" fill="#383C50" p-id="8294"></path><path d="M720.777432 529.828379h-412.402527v-33.145263a36.648421 36.648421 0 0 1 36.648421-36.648421h280.457432z" fill="#FF2F90" p-id="8295"></path><path d="M720.777432 540.607326h-412.402527a10.778947 10.778947 0 0 1-10.778947-10.778947v-33.145263a47.502821 47.502821 0 0 1 47.427368-47.427369h280.457432a10.778947 10.778947 0 0 1 6.370358 2.091116l95.296673 69.804463a10.778947 10.778947 0 0 1-6.359578 19.477558z m-401.655916-21.557894h368.64l-65.870148-48.257348H344.958653a25.869474 25.869474 0 0 0-25.869474 25.869474z" fill="#383C50" p-id="8296"></path><path d="M484.524463 223.199663a37.327495 37.327495 0 0 1 37.338274 37.327495v199.496758h-74.665769V260.527158a37.327495 37.327495 0 0 1 37.327495-37.327495z" fill="#FFB22F" p-id="8297"></path><path d="M521.862737 470.792084h-74.665769a10.778947 10.778947 0 0 1-10.778947-10.778947V260.527158a48.117221 48.117221 0 0 1 96.223663 0v199.485979a10.778947 10.778947 0 0 1-10.778947 10.778947z m-63.886821-21.557895h53.107873V260.527158a26.559326 26.559326 0 0 0-53.107873 0z" fill="#383C50" p-id="8298"></path><path d="M521.862737 356.287326h70.34341a33.414737 33.414737 0 0 1 33.414737 33.414737v70.300295h-103.758147v-103.715032z" fill="#00ABFF" p-id="8299"></path><path d="M625.588547 470.792084h-103.72581a10.778947 10.778947 0 0 1-10.778948-10.778947v-103.725811a10.778947 10.778947 0 0 1 10.778948-10.778947h70.332631a44.193684 44.193684 0 0 1 44.193685 44.193684v70.343411a10.778947 10.778947 0 0 1-10.800506 10.74661z m-92.946863-21.557895h82.167916v-59.564463a22.635789 22.635789 0 0 0-22.635789-22.635789h-59.553685z" fill="#383C50" p-id="8300"></path><path d="M373.727663 389.5296h148.102737v70.472758h-184.751158v-33.824337a36.648421 36.648421 0 0 1 36.648421-36.648421z" fill="#21D486" p-id="8301"></path><path d="M521.862737 470.792084H337.046905a10.778947 10.778947 0 0 1-10.778947-10.778947v-33.802779a47.5136 47.5136 0 0 1 47.427368-47.427369H521.808842a10.778947 10.778947 0 0 1 10.778947 10.778948v70.483537a10.778947 10.778947 0 0 1-10.725052 10.74661z m-174.004548-21.557895h163.2256v-48.925642H373.749221a25.934147 25.934147 0 0 0-25.869474 25.869474z" fill="#383C50" p-id="8302"></path><path d="M362.636126 627.755116m-25.556884 0a25.556884 25.556884 0 1 0 51.113769 0 25.556884 25.556884 0 1 0-51.113769 0Z" fill="#FFFFFF" p-id="8303"></path><path d="M362.646905 664.101726a36.335832 36.335832 0 1 1 36.335832-36.335831 36.389726 36.389726 0 0 1-36.335832 36.335831z m0-51.113768a14.777937 14.777937 0 1 0 14.777937 14.777937 14.799495 14.799495 0 0 0-14.777937-14.777937z" fill="#383C50" p-id="8304"></path><path d="M452.661895 627.755116m-25.556884 0a25.556884 25.556884 0 1 0 51.113768 0 25.556884 25.556884 0 1 0-51.113768 0Z" fill="#FFFFFF" p-id="8305"></path><path d="M452.672674 664.101726a36.335832 36.335832 0 1 1 36.34661-36.335831 36.389726 36.389726 0 0 1-36.34661 36.335831z m0-51.113768a14.777937 14.777937 0 1 0 14.788715 14.777937 14.810274 14.810274 0 0 0-14.788715-14.777937z" fill="#383C50" p-id="8306"></path><path d="M542.698442 627.755116m-25.556884 0a25.556884 25.556884 0 1 0 51.113768 0 25.556884 25.556884 0 1 0-51.113768 0Z" fill="#FFFFFF" p-id="8307"></path><path d="M542.698442 664.101726a36.335832 36.335832 0 1 1 36.335832-36.335831 36.389726 36.389726 0 0 1-36.335832 36.335831z m0-51.113768a14.777937 14.777937 0 1 0 14.777937 14.777937 14.799495 14.799495 0 0 0-14.777937-14.777937z" fill="#383C50" p-id="8308"></path><path d="M632.724211 627.755116m-25.556885 0a25.556884 25.556884 0 1 0 51.113769 0 25.556884 25.556884 0 1 0-51.113769 0Z" fill="#FFFFFF" p-id="8309"></path><path d="M632.734989 664.101726a36.335832 36.335832 0 1 1 36.335832-36.335831 36.378947 36.378947 0 0 1-36.335832 36.335831z m0-51.113768a14.777937 14.777937 0 1 0 14.777937 14.777937 14.799495 14.799495 0 0 0-14.777937-14.777937z" fill="#383C50" p-id="8310"></path></svg>